{
    "accessors": {
        "accessor_16": {
            "bufferView": "bufferView_23",
            "byteOffset": 0,
            "byteStride": 0,
            "componentType": 5123,
            "count": 546,
            "type": "SCALAR"
        },
        "accessor_19": {
            "bufferView": "bufferView_23",
            "byteOffset": 1092,
            "byteStride": 0,
            "componentType": 5123,
            "count": 240,
            "type": "SCALAR"
        },
        "accessor_21": {
            "bufferView": "bufferView_24",
            "byteOffset": 0,
            "byteStride": 12,
            "componentType": 5126,
            "count": 179,
            "max": [
                14.21,
                22.92,
                28.61
            ],
            "min": [
                -48.95,
                -56.28,
                0
            ],
            "type": "VEC3"
        }
    },
    "animations": {},
    "asset": {
        "generator": "collada2gltf@cf6371beb0bdc18ba603378d5e40c966da53d385",
        "premultipliedAlpha": true,
        "profile": {
            "api": "WebGL",
            "version": "1.0.2"
        },
        "version": "1.0"
    },
    "bufferViews": {
        "bufferView_23": {
            "buffer": "DEBW522AA0001a505",
            "byteLength": 1572,
            "byteOffset": 0,
            "target": 34963
        },
        "bufferView_24": {
            "buffer": "DEBW522AA0001a505",
            "byteLength": 2148,
            "byteOffset": 1572,
            "target": 34962
        }
    },
    "buffers": {
        "DEBW522AA0001a505": {
            "byteLength": 3720,
            "type": "arraybuffer",
            "uri": "data:application/octet-stream;base64,"
        }
    },
    "materials": {
        "default_ai_0.2_sh_0.2_tr_0.0_dc_r_0.8_g_0.8_b_0.8_sc_r_1.0_g_1.0_b_1.0_ec_r_0.0_g_0.0_b_0_eff": {
            "name": "default_ai_0.2_sh_0.2_tr_0.0_dc_r_0.8_g_0.8_b_0.8_sc_r_1.0_g_1.0_b_1.0_ec_r_0.0_g_0.0_b_0_mat",
            "technique": "technique0",
            "values": {
                "diffuse": [
                    0.8,
                    0.8,
                    0.8,
                    1
                ],
                "emission": [
                    0,
                    0,
                    0,
                    1
                ]
            }
        },
        "default_ai_0.2_sh_0.2_tr_0.0_dc_r_1.0_g_0.2_b_0.2_sc_r_1.0_g_1.0_b_1.0_ec_r_0.0_g_0.0_b_0_eff": {
            "name": "default_ai_0.2_sh_0.2_tr_0.0_dc_r_1.0_g_0.2_b_0.2_sc_r_1.0_g_1.0_b_1.0_ec_r_0.0_g_0.0_b_0_mat",
            "technique": "technique0",
            "values": {
                "diffuse": [
                    1,
                    0.2,
                    0.2,
                    1
                ],
                "emission": [
                    0,
                    0,
                    0,
                    1
                ]
            }
        }
    },
    "meshes": {
        "geometry0": {
            "name": "geometry0",
            "primitives": [
                {
                    "attributes": {
                        "POSITION": "accessor_21"
                    },
                    "indices": "accessor_16",
                    "material": "default_ai_0.2_sh_0.2_tr_0.0_dc_r_0.8_g_0.8_b_0.8_sc_r_1.0_g_1.0_b_1.0_ec_r_0.0_g_0.0_b_0_eff",
                    "mode": 4
                },
                {
                    "attributes": {
                        "POSITION": "accessor_21"
                    },
                    "indices": "accessor_19",
                    "material": "default_ai_0.2_sh_0.2_tr_0.0_dc_r_1.0_g_0.2_b_0.2_sc_r_1.0_g_1.0_b_1.0_ec_r_0.0_g_0.0_b_0_eff",
                    "mode": 4
                }
            ]
        }
    },
    "nodes": {
        "node_0": {
            "children": [],
            "matrix": [
                1,
                0,
                0,
                0,
                0,
                1,
                0,
                0,
                0,
                0,
                1,
                0,
                0,
                0,
                0,
                1
            ],
            "meshes": [
                "geometry0"
            ],
            "name": ""
        },
        "node_1": {
            "children": [
                "node_0"
            ],
            "matrix": [
                1,
                0,
                0,
                0,
                0,
                0,
                -1,
                0,
                0,
                1,
                0,
                0,
                0,
                0,
                0,
                1
            ],
            "name": "Y_UP_Transform"
        }
    },
    "programs": {
        "program_0": {
            "attributes": [
                "a_position"
            ],
            "fragmentShader": "DEBW522AA0001a5050FS",
            "vertexShader": "DEBW522AA0001a5050VS"
        }
    },
    "scene": "defaultScene",
    "scenes": {
        "defaultScene": {
            "nodes": [
                "node_1"
            ]
        }
    },
    "shaders": {
        "DEBW522AA0001a5050FS": {
            "type": 35632,
            "uri": "data:text/plain;base64,"
        },
        "DEBW522AA0001a5050VS": {
            "type": 35633,
            "uri": "data:text/plain;base64,"
        }
    },
    "skins": {},
    "techniques": {
        "technique0": {
            "attributes": {
                "a_position": "position"
            },
            "parameters": {
                "diffuse": {
                    "type": 35666
                },
                "emission": {
                    "type": 35666
                },
                "modelViewMatrix": {
                    "semantic": "MODELVIEW",
                    "type": 35676
                },
                "position": {
                    "semantic": "POSITION",
                    "type": 35665
                },
                "projectionMatrix": {
                    "semantic": "PROJECTION",
                    "type": 35676
                }
            },
            "program": "program_0",
            "states": {
                "enable": [
                    2929,
                    2884
                ]
            },
            "uniforms": {
                "u_diffuse": "diffuse",
                "u_emission": "emission",
                "u_modelViewMatrix": "modelViewMatrix",
                "u_projectionMatrix": "projectionMatrix"
            }
        }
    }
}